<?xml version="1.0" encoding="UTF-8" ?>
<!DOCTYPE svg PUBLIC "-//W3C//DTD SVG 1.1//EN" "http://www.w3.org/Graphics/SVG/1.1/DTD/svg11.dtd">
<svg width="760pt" height="243pt" viewBox="0 0 760 243" version="1.1" xmlns="http://www.w3.org/2000/svg">
<g id="#ffffffff">
</g>
<g id="#ea1d25ff">
<path fill="#ea1d25" opacity="1.00" d=" M 110.85 34.00 C 110.52 28.77 114.53 23.40 119.92 23.03 C 124.61 22.79 129.32 22.95 134.03 22.94 C 137.70 22.78 141.37 24.72 143.12 27.98 C 145.99 32.44 143.73 38.01 144.92 42.86 C 145.82 45.63 148.56 46.87 151.09 47.74 C 154.17 48.77 157.35 51.25 160.69 49.62 C 165.66 46.73 168.38 39.65 174.96 39.90 C 180.17 39.46 183.44 44.03 186.75 47.25 C 190.23 50.86 195.18 54.42 194.73 60.06 C 194.49 66.04 188.66 69.13 185.39 73.39 C 183.08 78.03 186.80 82.66 188.36 86.92 C 190.71 91.77 196.77 89.88 201.04 90.24 C 206.43 89.86 211.43 94.57 211.56 99.92 C 211.70 104.64 211.66 109.37 211.58 114.09 C 211.58 118.89 207.74 123.23 203.04 124.00 C 199.41 124.56 195.72 123.88 192.09 124.38 C 188.94 124.96 187.88 128.28 186.82 130.85 C 185.51 133.93 183.49 137.45 185.31 140.79 C 187.68 144.31 191.76 146.44 193.69 150.32 C 194.70 152.21 194.68 154.39 194.75 156.48 C 187.84 152.80 179.97 151.17 172.17 151.95 C 178.51 146.55 184.07 139.47 184.75 130.86 C 185.60 126.46 182.57 122.28 183.84 117.94 C 188.65 95.18 177.56 70.29 157.70 58.31 C 144.91 50.27 128.78 47.71 114.13 51.44 C 96.97 55.47 82.25 68.17 75.32 84.32 C 67.89 101.11 69.38 121.25 78.84 136.95 C 77.26 141.73 76.95 146.80 77.31 151.79 C 71.47 152.47 65.89 154.50 60.82 157.45 C 60.28 153.73 61.29 149.77 64.09 147.15 C 66.89 143.89 72.12 141.18 70.71 136.05 C 69.41 132.61 68.24 128.96 66.16 125.91 C 61.94 122.42 55.98 125.40 51.13 123.65 C 45.77 122.11 43.10 116.19 43.75 110.94 C 44.19 104.99 42.17 97.68 47.08 93.06 C 50.98 88.92 57.02 90.59 62.03 90.22 C 64.73 90.32 66.89 88.11 67.72 85.70 C 69.12 81.89 72.07 77.91 70.31 73.71 C 67.12 69.14 60.92 66.16 60.67 59.95 C 60.35 54.48 65.14 50.99 68.54 47.47 C 72.02 44.07 75.51 39.17 81.05 39.92 C 88.20 39.90 90.44 48.87 96.90 50.17 C 100.83 49.79 104.44 47.62 108.04 46.07 C 112.20 43.45 110.55 38.06 110.85 34.00 Z" />
<path fill="#ea1d25" opacity="1.00" d=" M 680.68 133.69 C 689.00 119.58 709.35 115.24 723.04 124.00 C 736.40 131.53 742.03 149.64 735.51 163.48 C 731.50 173.04 722.30 180.14 712.07 181.67 C 699.76 184.18 686.56 177.94 680.04 167.31 C 680.25 174.31 680.09 181.32 680.14 188.33 C 677.96 188.33 675.79 188.33 673.63 188.33 C 673.49 176.96 673.98 165.58 673.28 154.23 C 672.69 163.65 667.71 172.75 659.77 177.95 C 647.78 186.36 630.01 184.64 619.85 174.12 C 608.64 163.19 607.67 143.80 617.93 131.92 C 625.34 122.85 638.32 118.43 649.65 121.64 C 651.40 123.49 651.46 126.10 651.56 128.49 C 645.79 126.42 639.37 125.43 633.50 127.70 C 621.66 131.10 613.61 143.95 615.75 156.07 C 617.56 167.74 628.02 177.47 639.92 177.75 C 654.10 178.99 667.40 166.15 666.79 151.97 C 667.06 143.97 662.78 136.48 656.72 131.50 C 657.83 129.66 658.82 127.73 659.56 125.71 C 664.22 128.99 668.11 133.37 670.57 138.53 C 672.38 142.02 672.64 146.01 673.38 149.80 C 673.74 142.32 673.62 134.82 673.63 127.33 C 676.04 129.37 678.45 131.44 680.68 133.69 M 697.53 126.69 C 685.65 130.59 677.82 144.01 680.83 156.24 C 682.91 166.81 692.21 175.66 703.07 176.51 C 712.16 177.63 721.47 173.30 726.76 165.90 C 731.26 159.69 732.77 151.33 730.56 143.97 C 728.18 134.88 720.09 127.75 710.99 125.85 C 706.52 125.49 701.83 125.17 697.53 126.69 Z" />
</g>
<g id="#727374ff">
<path fill="#727374" opacity="1.00" d=" M 106.27 57.22 C 119.91 51.15 136.02 51.24 149.61 57.39 C 170.75 66.47 184.48 90.07 181.51 112.94 C 180.56 115.10 178.44 116.52 176.91 118.27 C 175.81 117.55 174.72 116.83 173.63 116.11 C 175.21 105.85 174.13 95.04 169.22 85.79 C 163.11 73.79 151.64 64.64 138.49 61.61 C 121.51 57.23 102.48 63.94 91.62 77.62 C 80.61 90.92 77.86 110.48 85.21 126.18 C 83.48 128.51 81.89 130.93 80.10 133.22 C 73.67 121.01 71.74 106.40 75.44 93.05 C 79.56 77.25 91.28 63.67 106.27 57.22 Z" />
</g>
<g id="#2a2a2aff">
<path fill="#2a2a2a" opacity="1.00" d=" M 681.97 57.03 C 684.44 54.18 688.55 54.60 691.95 54.74 C 698.29 54.89 704.59 60.43 704.42 67.01 C 704.25 68.64 704.91 71.03 703.04 71.89 C 700.19 73.58 696.61 72.47 693.48 72.58 C 691.68 74.36 690.27 76.51 688.32 78.14 C 689.02 80.40 690.91 81.93 692.39 83.68 C 699.46 91.69 708.32 98.58 718.85 101.20 C 723.37 102.11 728.00 101.87 732.56 102.43 C 720.77 104.13 708.13 104.33 697.22 98.87 C 692.86 96.73 689.09 93.55 686.19 89.67 C 682.83 85.00 676.47 82.72 670.92 84.34 C 664.86 85.47 660.50 90.63 654.30 91.32 C 650.89 92.36 646.18 91.38 644.21 95.08 C 643.31 98.00 645.16 100.79 646.99 102.91 C 650.49 107.15 655.20 110.09 659.39 113.57 C 660.93 117.36 660.52 121.79 659.56 125.71 C 658.82 127.73 657.83 129.66 656.72 131.50 C 651.90 138.13 644.25 141.60 637.20 145.27 C 636.57 145.76 634.67 146.02 635.80 144.86 C 642.14 140.79 649.30 136.15 651.56 128.49 C 651.46 126.10 651.40 123.49 649.65 121.64 C 647.23 118.19 643.24 116.46 640.18 113.70 C 634.69 109.08 629.62 102.63 630.26 95.03 C 630.11 88.52 634.73 83.30 639.52 79.48 C 644.99 75.55 650.95 72.35 657.13 69.66 C 659.83 68.05 663.06 67.99 665.92 66.79 C 668.30 66.61 670.69 66.61 673.08 66.78 C 675.66 67.86 678.54 68.39 680.58 70.46 C 681.76 70.39 682.95 70.31 684.15 70.23 C 684.85 69.92 686.27 69.30 686.98 68.99 C 685.39 65.00 680.83 61.78 681.97 57.03 Z" />
<path fill="#2a2a2a" opacity="1.00" d=" M 126.16 90.50 C 132.97 88.20 141.44 86.56 147.47 91.57 C 151.53 95.57 154.67 102.60 150.77 107.74 C 146.89 112.79 139.84 112.95 134.04 112.59 C 122.97 111.56 112.38 107.85 102.02 104.01 C 109.34 98.37 117.49 93.70 126.16 90.50 Z" />
<path fill="#2a2a2a" opacity="1.00" d=" M 273.01 96.04 C 278.51 94.32 284.43 94.42 290.13 94.82 C 297.83 95.83 305.75 100.58 308.09 108.35 C 308.91 113.62 309.11 119.89 305.07 123.98 C 302.25 127.53 297.76 128.86 293.63 130.20 C 300.02 131.59 306.83 133.74 311.02 139.09 C 316.68 146.28 317.49 156.86 312.79 164.75 C 308.41 173.18 299.16 177.81 290.17 179.55 C 276.83 181.58 262.88 179.99 250.47 174.66 C 247.05 172.95 242.05 170.39 243.42 165.73 C 246.24 164.04 249.92 161.91 249.68 158.10 C 249.76 142.36 249.75 126.61 249.69 110.87 C 250.11 105.64 242.56 103.31 244.77 97.81 C 246.06 97.29 247.42 96.21 248.87 97.00 C 252.15 98.21 255.55 99.04 259.05 99.29 C 263.74 98.39 268.40 97.33 273.01 96.04 M 273.95 103.70 C 269.80 106.13 266.41 110.33 266.39 115.33 C 266.26 128.56 266.38 141.78 266.33 155.00 C 266.26 158.60 267.10 162.50 269.69 165.15 C 273.07 168.08 277.69 169.42 282.13 169.28 C 285.71 168.14 289.62 167.23 292.13 164.18 C 298.46 157.42 297.97 145.94 291.95 139.15 C 287.91 134.55 279.74 133.96 275.79 138.96 C 275.28 141.32 275.27 143.73 275.81 146.09 C 277.37 147.37 279.04 148.66 281.20 148.43 C 282.17 146.51 282.57 144.25 284.20 142.72 C 287.98 143.87 288.44 148.43 286.34 151.31 C 285.36 151.97 284.41 152.65 283.49 153.36 C 280.94 153.91 278.34 153.81 275.80 153.36 C 268.84 150.13 266.52 140.94 270.29 134.48 C 274.66 127.06 285.46 126.23 288.70 117.82 C 291.27 112.73 289.09 106.41 284.22 103.62 C 280.85 102.77 277.31 102.77 273.95 103.70 Z" />
<path fill="#2a2a2a" opacity="1.00" d=" M 362.65 98.68 C 365.17 97.47 367.13 94.38 370.28 95.50 C 370.44 108.57 370.23 121.65 370.39 134.72 C 373.28 130.36 376.79 126.00 381.88 124.19 C 386.64 122.06 392.95 122.36 396.63 126.41 C 400.35 130.17 400.25 136.40 397.83 140.83 C 395.45 145.77 390.77 149.19 385.76 151.14 C 389.84 152.02 393.66 154.55 395.26 158.52 C 398.17 164.49 398.36 173.09 405.74 175.57 C 405.61 176.84 405.95 179.26 403.96 179.13 C 398.20 179.09 392.14 180.17 386.61 178.20 C 384.52 172.77 383.91 166.88 381.58 161.54 C 380.40 158.18 376.67 156.92 373.49 156.34 C 373.07 155.16 373.04 153.93 373.18 152.71 C 377.93 150.33 383.66 147.87 385.37 142.34 C 386.36 138.74 383.42 135.43 380.05 134.62 C 378.67 135.09 377.28 135.54 375.89 135.96 C 373.21 138.29 371.63 141.51 371.02 144.98 C 369.87 148.87 370.50 152.99 370.34 156.98 C 370.50 161.65 369.95 166.38 370.68 171.01 C 371.05 174.22 375.78 174.76 375.32 178.00 C 374.79 178.34 373.74 179.01 373.21 179.34 C 366.43 179.22 359.64 179.27 352.86 179.31 C 352.00 178.61 350.66 177.90 351.15 176.56 C 352.59 175.20 354.13 173.93 355.39 172.38 C 355.79 169.92 356.37 167.46 356.30 164.95 C 356.19 146.94 356.40 128.92 356.19 110.90 C 355.86 109.85 355.54 108.79 355.25 107.73 C 353.76 106.17 349.27 105.07 351.45 102.41 C 355.16 101.15 359.24 100.78 362.65 98.68 Z" />
<path fill="#2a2a2a" opacity="1.00" d=" M 492.51 104.65 C 497.44 97.99 505.75 94.17 514.01 94.55 C 520.71 94.10 527.09 96.46 533.20 98.92 C 536.60 100.42 540.40 99.20 543.97 99.72 C 546.26 101.77 544.58 105.02 542.36 106.31 C 537.29 109.84 533.53 114.88 531.08 120.50 C 529.67 120.60 528.28 120.55 526.90 120.38 C 525.20 116.13 523.24 110.96 518.41 109.50 C 513.35 107.07 505.78 110.96 506.30 117.01 C 506.21 120.66 509.65 123.10 512.76 124.19 C 522.72 128.08 534.57 129.50 541.96 138.02 C 546.59 142.72 548.19 149.53 547.66 155.96 C 547.69 163.61 542.98 170.59 536.78 174.74 C 526.33 181.52 512.89 181.93 501.14 178.77 C 492.77 176.63 484.36 170.80 482.51 161.87 C 480.11 152.46 488.51 142.68 498.08 142.99 C 503.81 143.56 509.45 146.39 512.99 151.00 C 514.66 153.24 515.55 156.68 513.25 158.84 C 510.46 157.39 508.14 154.90 504.89 154.51 C 501.66 153.84 498.25 156.53 498.13 159.83 C 497.65 164.99 502.42 168.58 506.70 170.28 C 514.92 173.53 524.96 170.16 529.25 162.40 C 531.68 157.56 530.90 150.87 526.34 147.53 C 518.04 140.72 506.66 140.50 497.47 135.46 C 493.40 133.19 490.44 129.37 488.84 125.04 C 487.06 118.15 488.07 110.36 492.51 104.65 Z" />
<path fill="#2a2a2a" opacity="1.00" d=" M 553.54 102.59 C 559.30 100.82 565.47 99.59 570.01 95.28 C 570.66 95.32 571.94 95.38 572.58 95.41 C 573.00 106.81 572.64 118.23 572.78 129.63 C 576.14 126.43 580.19 123.66 584.89 123.04 C 590.92 122.31 597.61 125.22 600.24 130.88 C 601.20 133.46 601.61 136.23 601.81 138.97 C 602.06 149.37 601.52 159.79 602.07 170.17 C 602.17 173.79 606.51 174.76 607.12 178.03 C 606.18 178.44 605.25 178.86 604.33 179.29 C 598.15 179.25 591.98 179.29 585.81 179.29 C 584.05 179.73 583.18 177.89 582.09 176.99 C 584.09 175.02 587.15 173.42 587.27 170.24 C 587.84 162.50 587.38 154.72 587.55 146.96 C 587.51 142.92 587.95 138.22 584.88 135.06 C 582.60 133.73 579.61 133.72 577.24 134.79 C 573.76 136.87 572.73 141.20 572.76 144.99 C 572.83 153.07 572.63 161.16 572.86 169.24 C 572.75 172.51 575.44 174.57 577.78 176.36 C 577.76 176.81 577.73 177.71 577.71 178.16 C 577.12 178.44 575.93 179.01 575.34 179.29 C 568.80 179.30 562.27 179.21 555.74 179.34 C 554.74 178.68 552.37 177.77 553.75 176.27 C 555.92 174.34 558.80 172.41 558.32 169.04 C 558.40 149.34 558.43 129.64 558.30 109.95 C 558.49 106.92 555.11 105.98 553.20 104.42 C 553.29 103.96 553.45 103.05 553.54 102.59 Z" />
<path fill="#2a2a2a" opacity="1.00" d=" M 331.45 105.47 C 332.63 105.24 333.82 105.00 335.01 104.75 C 336.11 105.03 337.22 105.30 338.33 105.55 C 340.30 107.19 342.40 109.22 342.28 112.01 C 342.67 115.20 340.44 117.70 338.10 119.50 C 335.36 119.70 332.08 120.49 329.95 118.23 C 325.52 115.11 326.68 107.71 331.45 105.47 Z" />
<path fill="#2a2a2a" opacity="1.00" d=" M 725.05 108.27 C 728.43 106.83 732.13 104.96 735.90 105.67 C 729.30 108.23 723.78 113.15 719.69 118.86 C 719.47 119.24 719.03 120.00 718.81 120.38 C 717.99 115.43 720.50 110.42 725.05 108.27 Z" />
<path fill="#2a2a2a" opacity="1.00" d=" M 32.78 113.50 C 37.53 117.94 42.63 122.06 47.17 126.71 C 50.39 140.25 53.38 153.88 56.38 167.48 C 60.88 161.97 67.45 158.53 74.38 157.22 C 74.10 161.09 74.93 164.98 77.21 168.16 C 69.29 168.75 62.29 175.11 61.15 182.99 C 59.22 192.98 67.75 203.44 78.00 203.27 C 87.55 203.85 96.19 195.26 95.84 185.73 C 89.98 184.51 85.50 180.07 83.15 174.73 C 89.64 180.32 99.03 179.55 107.01 179.04 C 112.43 177.61 117.60 181.12 120.14 185.72 C 115.77 184.96 111.20 184.20 106.84 185.40 C 107.73 200.27 94.71 214.04 79.89 214.37 C 66.78 215.37 53.96 205.93 50.84 193.19 C 44.96 166.60 38.75 140.08 32.78 113.50 Z" />
<path fill="#2a2a2a" opacity="1.00" d=" M 95.80 124.04 C 102.34 120.69 109.61 118.83 116.94 118.37 C 126.39 117.86 135.63 120.41 144.57 123.19 C 152.65 125.67 161.19 124.09 169.24 122.32 C 168.04 128.62 162.51 132.83 156.59 134.41 C 143.71 138.15 130.14 136.01 116.97 135.84 C 113.00 135.73 109.42 138.16 107.05 141.17 C 105.41 143.46 105.34 147.36 108.17 148.78 C 113.79 152.03 120.91 150.13 126.57 153.42 C 137.16 158.31 141.83 172.00 137.58 182.63 C 133.83 191.87 127.98 200.07 122.19 208.12 C 125.73 199.92 127.44 190.80 126.44 181.88 C 125.76 176.62 122.93 170.96 117.47 169.37 C 111.72 167.26 105.88 170.44 100.03 169.80 C 92.93 169.68 86.25 165.09 83.41 158.61 C 77.28 146.28 83.18 129.63 95.80 124.04 Z" />
<path fill="#2a2a2a" opacity="1.00" d=" M 417.98 127.89 C 423.39 123.19 431.58 121.42 438.19 124.57 C 441.00 126.20 444.32 125.76 447.42 125.58 C 451.16 127.97 451.43 132.89 451.37 136.89 C 451.13 147.77 441.44 158.82 430.02 157.59 C 428.21 157.54 426.47 157.02 424.77 156.49 C 423.20 155.26 421.70 153.94 420.32 152.51 C 420.93 157.70 423.60 163.02 428.47 165.39 C 431.94 167.49 436.24 167.73 440.03 166.40 C 443.65 164.71 446.33 161.80 449.08 159.01 C 451.08 157.51 452.12 160.49 451.63 162.00 C 450.76 167.53 447.62 172.77 443.12 176.11 C 436.51 180.82 427.18 181.25 420.10 177.35 C 412.53 173.10 408.60 164.33 408.07 155.94 C 407.45 153.69 407.46 151.32 408.08 149.07 C 408.51 141.12 411.82 133.10 417.98 127.89 M 426.88 130.90 C 422.85 132.56 420.83 136.96 420.19 141.04 C 421.85 139.57 423.65 137.75 426.06 137.90 C 428.00 137.80 429.63 138.99 431.32 139.77 C 431.80 141.27 431.73 142.79 431.12 144.24 C 429.46 143.53 427.76 142.40 425.87 142.85 C 425.05 143.79 424.44 144.89 423.77 145.93 C 424.43 150.89 430.77 152.09 434.19 149.14 C 438.63 145.70 439.20 139.34 437.55 134.32 C 436.39 133.18 435.34 131.92 434.03 130.97 C 431.73 130.25 429.19 130.24 426.88 130.90 Z" />
<path fill="#2a2a2a" opacity="1.00" d=" M 336.90 124.60 C 338.24 123.99 339.64 123.58 341.14 123.81 C 341.77 135.86 341.25 147.94 341.42 160.00 C 341.62 164.33 340.70 168.96 342.63 173.02 C 343.93 174.71 346.36 175.52 346.57 177.95 C 346.00 178.29 344.84 178.96 344.26 179.29 C 338.16 179.24 332.06 179.30 325.96 179.28 C 324.67 179.07 322.54 179.63 322.29 177.76 C 321.90 174.57 326.88 174.02 326.57 170.62 C 326.85 159.85 326.74 149.06 326.63 138.28 C 326.71 135.03 323.23 133.84 321.19 132.01 C 322.54 130.87 324.07 129.88 325.87 129.63 C 329.88 128.92 333.85 127.37 336.90 124.60 Z" />
<path fill="#2a2a2a" opacity="1.00" d=" M 169.09 137.11 C 172.97 134.35 175.90 130.53 178.35 126.50 C 179.18 134.94 174.34 142.99 167.55 147.67 C 166.77 148.46 165.35 148.88 165.12 150.06 C 165.96 152.72 167.16 155.26 167.99 157.93 C 173.65 156.82 179.63 156.59 185.13 158.55 C 194.30 161.44 201.74 169.18 204.40 178.40 C 207.56 188.64 204.61 200.48 196.99 208.02 C 188.28 217.14 173.51 219.45 162.38 213.58 C 152.56 208.69 146.04 197.99 146.11 187.03 C 146.01 180.47 148.42 174.08 152.16 168.76 C 154.09 173.24 155.91 177.78 157.70 182.32 C 158.39 183.79 158.08 185.44 158.13 187.01 C 157.82 194.29 162.86 201.21 169.59 203.74 C 176.67 206.60 185.41 204.07 189.96 197.97 C 195.58 191.04 194.79 179.87 188.11 173.91 C 184.11 169.84 178.11 168.43 172.58 169.39 C 175.26 176.30 178.08 183.17 180.70 190.11 C 182.06 193.55 177.40 194.94 174.80 194.84 C 169.33 180.98 163.45 167.28 158.05 153.38 C 153.20 155.36 148.27 157.23 143.14 158.32 C 141.65 154.12 138.82 150.08 134.37 148.72 C 146.57 147.58 159.11 144.52 169.09 137.11 Z" />
<path fill="#2a2a2a" opacity="1.00" d=" M 691.01 131.92 C 692.03 131.48 693.06 131.04 694.09 130.58 C 696.67 135.07 699.47 139.43 702.02 143.93 C 698.14 140.13 694.85 135.77 691.01 131.92 Z" />
<path fill="#2a2a2a" opacity="1.00" d=" M 629.71 135.54 C 628.50 134.53 629.39 133.06 629.99 132.02 C 632.45 135.89 635.04 139.68 637.70 143.42 C 634.70 141.15 632.31 138.22 629.71 135.54 Z" />
<path fill="#2a2a2a" opacity="1.00" d=" M 713.32 146.65 C 717.08 143.35 721.31 140.67 725.35 137.75 C 725.38 138.46 725.42 139.88 725.45 140.59 C 721.38 142.55 717.35 144.60 713.32 146.65 Z" />
<path fill="#2a2a2a" opacity="1.00" d=" M 658.10 140.16 C 659.09 139.29 660.42 139.22 661.68 139.13 C 661.69 139.62 661.71 140.59 661.71 141.08 C 657.10 142.71 652.72 144.91 648.20 146.78 C 651.36 144.37 654.77 142.33 658.10 140.16 Z" />
<path fill="#2a2a2a" opacity="1.00" d=" M 702.32 146.96 C 703.94 145.61 706.02 144.46 708.21 145.17 C 711.61 145.85 713.25 150.51 711.15 153.25 C 709.08 156.81 702.79 156.07 701.77 152.03 C 700.96 150.33 701.84 148.59 702.32 146.96 Z" />
<path fill="#2a2a2a" opacity="1.00" d=" M 636.28 149.56 C 638.15 145.87 644.21 144.83 646.38 148.73 C 647.95 150.65 647.00 153.14 645.95 155.07 C 643.69 156.90 639.86 157.71 637.85 155.10 C 635.93 153.85 636.34 151.52 636.28 149.56 Z" />
<path fill="#2a2a2a" opacity="1.00" d=" M 685.98 160.68 C 690.75 157.71 695.85 155.31 700.63 152.35 C 696.51 156.25 692.86 160.79 688.22 164.04 C 687.58 162.85 686.84 161.72 685.98 160.68 Z" />
<path fill="#2a2a2a" opacity="1.00" d=" M 624.16 158.10 C 627.57 156.72 631.06 155.54 634.43 154.05 C 630.60 156.97 626.68 159.76 622.84 162.68 C 622.06 161.53 621.23 160.42 620.29 159.43 C 621.58 159.03 622.88 158.58 624.16 158.10 Z" />
<path fill="#2a2a2a" opacity="1.00" d=" M 710.96 157.84 C 713.74 161.88 716.08 166.20 718.89 170.22 C 718.27 170.53 717.03 171.15 716.41 171.45 C 714.93 166.79 712.93 162.31 710.96 157.84 Z" />
<path fill="#2a2a2a" opacity="1.00" d=" M 646.19 158.34 C 648.55 162.38 652.35 165.84 653.61 170.38 C 653.03 170.49 651.86 170.72 651.27 170.84 C 650.24 166.42 647.78 162.55 646.19 158.34 Z" />
</g>
</svg>
